<svg width="512" height="512" viewBox="0 0 512 512" fill="none" xmlns="http://www.w3.org/2000/svg">
<rect x="20" y="20" width="472" height="472" rx="74.0419" fill="#FD5410"/>
<path d="M319.202 240.564C316.527 251.315 301.417 251.774 298.094 241.205L277.051 174.278C275.614 169.708 271.377 166.599 266.587 166.599H245.771C240.966 166.599 236.72 169.727 235.295 174.317L214.55 241.163C211.266 251.744 196.154 251.341 193.439 240.6L176.825 174.88C175.594 170.01 171.213 166.599 166.19 166.599H146.465C139.3 166.599 134.059 173.355 135.84 180.295L180.327 353.662C181.572 358.513 185.944 361.905 190.952 361.905H212.454C217.17 361.905 221.358 358.891 222.855 354.419L245.286 287.433C248.629 277.451 262.748 277.452 266.089 287.434L288.511 354.418C290.008 358.89 294.197 361.905 298.913 361.905H320.427C325.435 361.905 329.807 358.513 331.052 353.662L375.528 180.294C377.308 173.355 372.067 166.599 364.903 166.599H346.182C341.144 166.599 336.754 170.031 335.537 174.92L319.202 240.564Z" fill="#0B0B0C"/>
</svg>
